<?xml version="1.0" encoding="UTF-8" standalone="no"?>
<!-- Created with Inkscape (http://www.inkscape.org/) -->
<svg
   xmlns:dc="http://purl.org/dc/elements/1.1/"
   xmlns:cc="http://creativecommons.org/ns#"
   xmlns:rdf="http://www.w3.org/1999/02/22-rdf-syntax-ns#"
   xmlns:svg="http://www.w3.org/2000/svg"
   xmlns="http://www.w3.org/2000/svg"
   xmlns:sodipodi="http://sodipodi.sourceforge.net/DTD/sodipodi-0.dtd"
   xmlns:inkscape="http://www.inkscape.org/namespaces/inkscape"
   width="18"
   height="32"
   id="svg2"
   sodipodi:version="0.32"
   inkscape:version="0.46"
   version="1.0"
   sodipodi:docname="marker.svg"
   inkscape:output_extension="org.inkscape.output.svg.inkscape"
   inkscape:export-filename="D:\Workspace\Java\AndNav\res\drawable\marker.png"
   inkscape:export-xdpi="135"
   inkscape:export-ydpi="135">
  <defs
     id="defs4">
    <inkscape:perspective
       sodipodi:type="inkscape:persp3d"
       inkscape:vp_x="0 : 526.18109 : 1"
       inkscape:vp_y="0 : 1000 : 0"
       inkscape:vp_z="744.09448 : 526.18109 : 1"
       inkscape:persp3d-origin="372.04724 : 350.78739 : 1"
       id="perspective10" />
    <inkscape:perspective
       id="perspective2390"
       inkscape:persp3d-origin="372.04724 : 350.78739 : 1"
       inkscape:vp_z="744.09448 : 526.18109 : 1"
       inkscape:vp_y="0 : 1000 : 0"
       inkscape:vp_x="0 : 526.18109 : 1"
       sodipodi:type="inkscape:persp3d" />
    <inkscape:perspective
       id="perspective3329"
       inkscape:persp3d-origin="372.04724 : 350.78739 : 1"
       inkscape:vp_z="744.09448 : 526.18109 : 1"
       inkscape:vp_y="0 : 1000 : 0"
       inkscape:vp_x="0 : 526.18109 : 1"
       sodipodi:type="inkscape:persp3d" />
    <inkscape:perspective
       id="perspective3344"
       inkscape:persp3d-origin="372.04724 : 350.78739 : 1"
       inkscape:vp_z="744.09448 : 526.18109 : 1"
       inkscape:vp_y="0 : 1000 : 0"
       inkscape:vp_x="0 : 526.18109 : 1"
       sodipodi:type="inkscape:persp3d" />
  </defs>
  <sodipodi:namedview
     id="base"
     pagecolor="#ffffff"
     bordercolor="#666666"
     borderopacity="1.0"
     inkscape:pageopacity="0.0"
     inkscape:pageshadow="2"
     inkscape:zoom="7.2407734"
     inkscape:cx="30.488089"
     inkscape:cy="24.810804"
     inkscape:document-units="px"
     inkscape:current-layer="layer1"
     showgrid="false"
     inkscape:window-width="1280"
     inkscape:window-height="750"
     inkscape:window-x="-8"
     inkscape:window-y="-8" />
  <metadata
     id="metadata7">
    <rdf:RDF>
      <cc:Work
         rdf:about="">
        <dc:format>image/svg+xml</dc:format>
        <dc:type
           rdf:resource="http://purl.org/dc/dcmitype/StillImage" />
      </cc:Work>
    </rdf:RDF>
  </metadata>
  <g
     inkscape:label="Ebene 1"
     inkscape:groupmode="layer"
     id="layer1">
    <path
       style="fill:#65b94a;fill-opacity:1;stroke:#000000;stroke-width:0.92843848;stroke-opacity:1"
       d="M 8.5809546,28.630682 C 8.5177991,26.805448 6.6748445,19.462276 3.5046008,15.983591 C -2.5310291,9.3607404 0.99806998,0.46421965 9.0102644,0.46421965 C 17.06329,0.46421965 20.496476,8.8933322 14.495063,16.364096 C 11.202745,20.462485 9.3080554,27.754513 9.2553383,28.975142 C 9.2026211,30.195772 9.2067276,30.777857 9.0102644,31.535781 C 8.8135143,30.835678 8.6441099,30.455916 8.5809546,28.630682 z"
       id="path2396"
       sodipodi:nodetypes="cssszcz" />
    <g
       id="g3352"
       transform="matrix(-0.4015395,0,0,-0.4015395,26.963589,15.207272)">
      <path
         id="path3350"
         d="M 39.052226,29.292069 L 39.052226,26.584139 L 38.163875,26.584139 L 37.275527,26.584139 L 37.254786,24.746613 L 37.234043,22.909092 L 36.32495,22.887292 L 35.415861,22.865494 L 35.415861,21.088454 L 35.415861,19.31141 L 34.527515,19.31141 L 33.639163,19.31141 L 33.618422,17.473888 L 33.597679,15.636364 L 32.68859,15.614566 L 31.779497,15.592769 L 31.779497,14.705473 L 31.779497,13.81818 L 30.889748,13.81818 L 30,13.81818 L 30,11.110252 L 30,8.4023214 L 32.707931,8.4023214 L 35.415861,8.4023214 L 35.415861,9.2920693 L 35.415861,10.181817 L 36.382977,10.181817 L 37.350096,10.181817 L 37.350096,2.0580266 L 37.350096,-6.0657648 L 38.154198,-6.0657648 C 38.816062,-6.0657648 38.966606,-6.0874136 39.005262,-6.1881457 C 39.031093,-6.2554549 39.052226,-6.6906576 39.052226,-7.1552647 L 39.052226,-8 L 40.909092,-8 L 42.765957,-8 L 42.765957,-7.0715668 L 42.765957,-6.1431335 L 43.655705,-6.1431335 L 44.545456,-6.1431335 L 44.545456,-2.5454563 L 44.545456,1.0522256 L 46.363636,1.0522256 L 48.181817,1.0522256 L 48.181817,1.9806589 L 48.181817,2.9090923 L 50.928433,2.9090923 L 53.675048,2.9090923 L 53.675048,3.837524 L 53.675048,4.7659573 L 55.493231,4.7659573 L 57.31141,4.7659573 L 57.31141,5.6557052 L 57.31141,6.5454547 L 58.239844,6.5454547 L 59.168277,6.5454547 L 59.168277,7.4352026 L 59.168277,8.3249504 L 60.019341,8.3249504 L 60.870405,8.3249504 L 60.870405,14.705396 L 60.870405,21.08584 L 60,21.107718 L 59.129595,21.129593 L 59.109263,23.856867 L 59.088928,26.584139 L 58.200171,26.584139 L 57.31141,26.584139 L 57.31141,29.292069 L 57.31141,32 L 48.181817,32 L 39.052226,32 L 39.052226,29.292069 z"
         style="fill:#ffffff;fill-opacity:1" />
      <g
         style="fill:#000000;fill-opacity:1;stroke:#000000;stroke-opacity:1"
         id="g3235"
         transform="matrix(9.085976e-2,0,0,9.085976e-2,13.095374,-31.646581)">
        <path
           id="rect3178"
           d="M 287.85879,262.15431 L 287.85879,278.77931 L 324.39004,278.77931 L 324.39004,262.15431 L 287.85879,262.15431 z M 328.10879,282.46681 L 328.10879,458.40431 L 344.29629,458.40431 L 344.29629,379.06056 L 384.57754,379.06056 L 384.57754,362.02931 L 344.29629,362.02931 L 344.29629,282.46681 L 328.10879,282.46681 z M 268.60879,283.18556 L 268.60879,537.59181 L 283.17129,537.59181 L 283.17129,283.18556 L 268.60879,283.18556 z M 388.29629,382.52931 L 388.29629,398.99806 L 444.42129,398.99806 L 444.42129,382.52931 L 388.29629,382.52931 z M 388.04629,400.49806 L 388.04629,458.37306 L 404.26504,458.37306 L 404.26504,400.49806 L 388.04629,400.49806 z M 447.92129,402.74806 L 447.92129,418.71681 L 448.17129,418.71681 L 448.17129,478.84181 L 464.14004,478.84181 L 464.14004,418.71681 L 484.60879,418.71681 L 484.60879,402.74806 L 447.92129,402.74806 z M 487.85879,422.43556 L 487.85879,438.65431 L 504.82754,438.65431 L 504.82754,422.43556 L 487.85879,422.43556 z M 507.82754,441.65431 L 507.82754,578.65431 L 524.04629,578.65431 L 524.04629,441.65431 L 507.82754,441.65431 z M 187.95254,442.37306 L 187.95254,458.71681 L 187.95254,498.65431 L 204.14004,498.65431 L 204.14004,458.71681 L 244.20254,458.71681 L 244.20254,442.37306 L 187.95254,442.37306 z M 248.04629,462.27931 L 248.04629,478.37306 L 264.67129,478.37306 L 264.67129,462.27931 L 248.04629,462.27931 z M 207.54629,502.21681 L 207.54629,518.49806 L 224.29629,518.49806 L 224.29629,502.21681 L 207.54629,502.21681 z M 227.85879,522.06056 L 227.85879,558.68556 L 244.51504,558.68556 L 244.51504,522.06056 L 227.85879,522.06056 z M 247.79629,561.81056 L 247.79629,598.49806 L 264.35879,598.49806 L 264.35879,561.81056 L 247.79629,561.81056 z M 487.42129,582.43556 L 487.42129,638.49806 L 504.51504,638.49806 L 504.51504,582.43556 L 487.42129,582.43556 z M 267.67129,601.49806 L 267.67129,638.49806 L 284.26504,638.49806 L 284.26504,601.49806 L 267.67129,601.49806 z M 467.89004,642.02931 L 467.89004,682.62306 L 304.26504,682.62306 L 304.26504,642.15431 L 287.76504,642.15431 L 287.76504,698.59181 L 304.26504,698.59181 L 304.26504,698.52931 L 484.20254,698.52931 L 484.20254,689.21681 L 484.35879,689.21681 L 484.35879,642.02931 L 467.89004,642.02931 z"
           style="opacity:1;fill:#000000;fill-opacity:1;fill-rule:evenodd;stroke:#000000;stroke-width:3.80139112;stroke-linecap:butt;stroke-miterlimit:6.69999981;stroke-dasharray:none;stroke-dashoffset:0;stroke-opacity:1" />
      </g>
    </g>
    <g
       transform="matrix(5.2462511e-2,0,0,5.2462511e-2,2.1577729,3.7679654)"
       id="g3318"
       style="fill:#000000;fill-opacity:1;stroke:#000000;stroke-opacity:1" />
  </g>
</svg>
